<svg width="24" height="24" viewBox="0 0 24 24" fill="none" xmlns="http://www.w3.org/2000/svg">
<path fill-rule="evenodd" clip-rule="evenodd" d="M6.34313 6.34314C9.46501 3.22127 14.535 3.22127 17.6568 6.34314C20.7787 9.46502 20.7787 14.535 17.6568 17.6569C14.535 20.7787 9.46501 20.7787 6.34313 17.6569C3.22126 14.535 3.22126 9.46502 6.34313 6.34314ZM17.6066 7.80756C19.6608 10.549 19.4416 14.4579 16.9497 16.9497C14.4579 19.4416 10.549 19.6608 7.80755 17.6067L17.6066 7.80756ZM16.1924 6.39335L6.39334 16.1924C4.33919 13.451 4.5584 9.5421 7.05024 7.05025C9.54209 4.55841 13.451 4.3392 16.1924 6.39335Z" fill="white"/>
<path fill-rule="evenodd" clip-rule="evenodd" d="M6.34313 6.34314C9.46501 3.22127 14.535 3.22127 17.6568 6.34314C20.7787 9.46502 20.7787 14.535 17.6568 17.6569C14.535 20.7787 9.46501 20.7787 6.34313 17.6569C3.22126 14.535 3.22126 9.46502 6.34313 6.34314ZM17.6066 7.80756C19.6608 10.549 19.4416 14.4579 16.9497 16.9497C14.4579 19.4416 10.549 19.6608 7.80755 17.6067L17.6066 7.80756ZM16.1924 6.39335L6.39334 16.1924C4.33919 13.451 4.5584 9.5421 7.05024 7.05025C9.54209 4.55841 13.451 4.3392 16.1924 6.39335Z" fill="black"/>
</svg>
