<svg width="24" height="24" viewBox="0 0 24 24" fill="none" xmlns="http://www.w3.org/2000/svg">
<path d="M20.25 3H0.75V18H20.25V3ZM18.75 16.5H2.25V4.5H18.75V16.5Z" fill="white"/>
<path d="M21.75 6.75V19.5H4.5V21H23.25V6.75H21.75Z" fill="white"/>
<path d="M10.5 14.1778C12.3609 14.1778 13.875 12.5307 13.875 10.5062C13.875 8.48176 12.3609 6.83472 10.5 6.83472C8.63906 6.83472 7.125 8.48172 7.125 10.5062C7.125 12.5308 8.63906 14.1778 10.5 14.1778ZM10.5 8.33472C11.5339 8.33472 12.375 9.30887 12.375 10.5062C12.375 11.7036 11.5339 12.6778 10.5 12.6778C9.46613 12.6778 8.625 11.7036 8.625 10.5062C8.625 9.30887 9.46613 8.33472 10.5 8.33472Z" fill="white"/>
<path d="M3.75 6.375H5.25V14.625H3.75V6.375Z" fill="white"/>
<path d="M15.75 6.375H17.25V14.625H15.75V6.375Z" fill="white"/>
</svg>
