<svg width="24" height="24" viewBox="0 0 24 24" fill="none" xmlns="http://www.w3.org/2000/svg">
<path fill-rule="evenodd" clip-rule="evenodd" d="M12 6C16.415 6 20 9.585 20 14C20 18.415 16.415 22 12 22C7.585 22 4 18.415 4 14C4 9.585 7.585 6 12 6ZM12 7C15.863 7 19 10.137 19 14C19 17.863 15.863 21 12 21C8.137 21 5 17.863 5 14C5 10.137 8.137 7 12 7Z" fill="black"/>
<path fill-rule="evenodd" clip-rule="evenodd" d="M15.5 2H8.5V5H15.5V2ZM14.5 3H9.5V4H14.5V3Z" fill="black"/>
<path fill-rule="evenodd" clip-rule="evenodd" d="M4.87871 3.80922L1.56195 7.12598L3.68327 9.2473L7.00003 5.93054L4.87871 3.80922ZM5.11199 4.99015L2.74288 7.35926L3.44999 8.06637L5.8191 5.69726L5.11199 4.99015Z" fill="black"/>
<path fill-rule="evenodd" clip-rule="evenodd" d="M19.1214 3.80922L22.4381 7.12598L20.3168 9.2473L17 5.93054L19.1214 3.80922ZM18.8881 4.99015L21.2572 7.35926L20.5501 8.06637L18.181 5.69726L18.8881 4.99015Z" fill="black"/>
<path d="M13 8H11V14H13V8Z" fill="black"/>
<path d="M12 16C13.1046 16 14 15.1046 14 14C14 12.8954 13.1046 12 12 12C10.8954 12 10 12.8954 10 14C10 15.1046 10.8954 16 12 16Z" fill="black"/>
</svg>
