<svg width="99" height="24" viewBox="0 0 99 24" fill="none" xmlns="http://www.w3.org/2000/svg">
<path d="M15.2064 11.986C15.3624 11.986 15.4824 12.058 15.5664 12.202C15.6624 12.346 15.7104 12.544 15.7104 12.796C15.7104 13.264 15.5964 13.636 15.3684 13.912C14.6964 14.716 14.0424 15.28 13.4064 15.604C12.7824 15.928 12.0264 16.09 11.1384 16.09C10.5144 16.09 9.93841 16.012 9.41041 15.856C8.88241 15.7 8.24041 15.466 7.48441 15.154C6.80041 14.854 6.14041 14.608 5.50441 14.416C4.89241 15.532 3.97441 16.09 2.75041 16.09C2.07841 16.09 1.54441 15.94 1.14841 15.64C0.740414 15.328 0.536414 14.932 0.536414 14.452C0.536414 13.864 0.818414 13.378 1.38241 12.994C1.94641 12.598 2.69641 12.4 3.63241 12.4H3.86641L4.19041 7.162C4.26241 5.962 4.47841 4.972 4.83841 4.192C5.19841 3.412 5.69641 2.746 6.33241 2.194C6.88441 1.714 7.51441 1.354 8.22241 1.114C8.93041 0.861999 9.68041 0.735999 10.4724 0.735999C11.7684 0.735999 12.7644 1.072 13.4604 1.744C14.1564 2.416 14.5044 3.292 14.5044 4.372C14.5044 5.104 14.3724 5.698 14.1084 6.154C13.8444 6.598 13.4784 6.82 13.0104 6.82C12.6744 6.82 12.4104 6.742 12.2184 6.586C12.0264 6.418 11.9304 6.184 11.9304 5.884C11.9304 5.776 11.9544 5.578 12.0024 5.29C12.0744 4.954 12.1104 4.654 12.1104 4.39C12.1104 3.886 11.9604 3.49 11.6604 3.202C11.3724 2.902 10.9284 2.752 10.3284 2.752C9.27241 2.752 8.45641 3.1 7.88041 3.796C7.30441 4.48 6.93841 5.56 6.78241 7.036L6.36841 11.122C6.30841 11.698 6.23041 12.196 6.13441 12.616C6.90241 12.748 7.86241 12.958 9.01441 13.246C9.68641 13.414 10.2024 13.534 10.5624 13.606C10.9224 13.678 11.2404 13.714 11.5164 13.714C12.2124 13.714 12.8064 13.6 13.2984 13.372C13.8024 13.132 14.2764 12.754 14.7204 12.238C14.8644 12.07 15.0264 11.986 15.2064 11.986ZM16.6077 6.424C16.1037 6.424 15.7257 6.31 15.4737 6.082C15.2217 5.842 15.0957 5.512 15.0957 5.092C15.0957 4.672 15.2577 4.324 15.5817 4.048C15.9177 3.76 16.3317 3.616 16.8237 3.616C17.2677 3.616 17.6277 3.724 17.9037 3.94C18.1797 4.156 18.3177 4.462 18.3177 4.858C18.3177 5.338 18.1617 5.722 17.8497 6.01C17.5377 6.286 17.1237 6.424 16.6077 6.424ZM16.4637 16.09C15.6837 16.09 15.1137 15.814 14.7537 15.262C14.4057 14.71 14.2317 13.978 14.2317 13.066C14.2317 12.526 14.2977 11.836 14.4297 10.996C14.5737 10.144 14.7537 9.352 14.9697 8.62C15.0777 8.236 15.2217 7.972 15.4017 7.828C15.5817 7.684 15.8697 7.612 16.2657 7.612C16.8777 7.612 17.1837 7.816 17.1837 8.224C17.1837 8.524 17.0697 9.22 16.8417 10.312C16.5537 11.632 16.4097 12.526 16.4097 12.994C16.4097 13.354 16.4577 13.63 16.5537 13.822C16.6497 14.014 16.8117 14.11 17.0397 14.11C17.2557 14.11 17.5257 13.96 17.8497 13.66C18.1737 13.36 18.6057 12.886 19.1457 12.238C19.2897 12.07 19.4517 11.986 19.6317 11.986C19.7877 11.986 19.9077 12.058 19.9917 12.202C20.0877 12.346 20.1357 12.544 20.1357 12.796C20.1357 13.276 20.0217 13.648 19.7937 13.912C18.6057 15.364 17.4957 16.09 16.4637 16.09ZM20.7494 16.09C20.0654 16.09 19.5074 15.82 19.0754 15.28C18.6554 14.74 18.4454 14.032 18.4454 13.156C18.4454 12.196 18.6674 11.29 19.1114 10.438C19.5554 9.574 20.1434 8.884 20.8754 8.368C21.6194 7.84 22.4054 7.576 23.2334 7.576C23.4974 7.576 23.6714 7.63 23.7554 7.738C23.8514 7.834 23.9294 8.014 23.9894 8.278C24.2174 8.23 24.4694 8.206 24.7454 8.206C25.0334 8.206 25.2554 8.278 25.4114 8.422C25.5674 8.566 25.6454 8.77 25.6454 9.034C25.6454 9.31 25.5854 9.79 25.4654 10.474C25.3334 11.206 25.2314 11.908 25.1594 12.58C25.0874 13.24 25.0514 13.984 25.0514 14.812C25.0514 15.268 24.9554 15.598 24.7634 15.802C24.5834 15.994 24.2834 16.09 23.8634 16.09C23.4554 16.09 23.1494 15.994 22.9454 15.802C22.7534 15.598 22.6574 15.274 22.6574 14.83L22.6754 14.542C22.3034 15.574 21.6614 16.09 20.7494 16.09ZM21.4514 14.272C21.7874 14.272 22.0934 14.038 22.3694 13.57C22.6454 13.102 22.8914 12.268 23.1074 11.068L23.4494 9.25C22.9574 9.262 22.5014 9.454 22.0814 9.826C21.6614 10.186 21.3254 10.666 21.0734 11.266C20.8214 11.866 20.6954 12.502 20.6954 13.174C20.6954 13.534 20.7614 13.81 20.8934 14.002C21.0374 14.182 21.2234 14.272 21.4514 14.272ZM46.4472 4.48C46.4472 5.5 46.0872 6.382 45.3672 7.126C44.6472 7.858 43.5972 8.386 42.2172 8.71C42.9612 8.914 43.5252 9.25 43.9092 9.718C44.2932 10.174 44.4852 10.702 44.4852 11.302C44.4852 12.25 44.1852 13.072 43.5852 13.768C42.9972 14.464 42.1332 15.004 40.9932 15.388C39.8532 15.76 38.4792 15.946 36.8712 15.946C36.2712 15.946 35.7912 15.928 35.4312 15.892C35.4192 16.228 35.2752 16.48 34.9992 16.648C34.7232 16.816 34.3692 16.9 33.9372 16.9C33.5052 16.9 33.2052 16.804 33.0372 16.612C32.8812 16.42 32.8152 16.138 32.8392 15.766C32.9472 14.086 33.1572 12.328 33.4692 10.492C33.7812 8.644 34.1772 6.862 34.6572 5.146C34.7412 4.846 34.9092 4.636 35.1612 4.516C35.4132 4.396 35.7432 4.336 36.1512 4.336C36.8832 4.336 37.2492 4.54 37.2492 4.948C37.2492 5.116 37.2132 5.308 37.1412 5.524C36.8292 6.46 36.5172 7.732 36.2052 9.34C35.8932 10.936 35.6712 12.46 35.5392 13.912C36.1152 13.96 36.5832 13.984 36.9432 13.984C38.6232 13.984 39.8532 13.744 40.6332 13.264C41.4252 12.772 41.8212 12.148 41.8212 11.392C41.8212 10.864 41.5932 10.42 41.1372 10.06C40.6932 9.7 39.9432 9.502 38.8872 9.466C38.6472 9.454 38.4792 9.394 38.3832 9.286C38.2872 9.178 38.2392 9.004 38.2392 8.764C38.2392 8.416 38.3112 8.134 38.4552 7.918C38.5992 7.702 38.8632 7.588 39.2472 7.576C40.0992 7.552 40.8672 7.426 41.5512 7.198C42.2472 6.97 42.7932 6.652 43.1892 6.244C43.5852 5.824 43.7832 5.338 43.7832 4.786C43.7832 4.09 43.4412 3.544 42.7572 3.148C42.0732 2.74 41.0232 2.536 39.6072 2.536C38.3232 2.536 37.0812 2.704 35.8812 3.04C34.6812 3.364 33.6612 3.778 32.8212 4.282C32.4372 4.51 32.1132 4.624 31.8492 4.624C31.6332 4.624 31.4652 4.552 31.3452 4.408C31.2372 4.252 31.1832 4.06 31.1832 3.832C31.1832 3.532 31.2432 3.274 31.3632 3.058C31.4952 2.842 31.8012 2.596 32.2812 2.32C33.2892 1.744 34.4712 1.294 35.8272 0.969999C37.1832 0.645999 38.5692 0.483999 39.9852 0.483999C42.1572 0.483999 43.7772 0.849999 44.8452 1.582C45.9132 2.314 46.4472 3.28 46.4472 4.48ZM55.1231 10.474C55.2791 10.474 55.3991 10.552 55.4831 10.708C55.5671 10.864 55.6091 11.062 55.6091 11.302C55.6091 11.878 55.4351 12.22 55.0871 12.328C54.3671 12.58 53.5751 12.724 52.7111 12.76C52.4831 13.768 52.0331 14.578 51.3611 15.19C50.6891 15.79 49.9271 16.09 49.0751 16.09C48.3551 16.09 47.7371 15.916 47.2211 15.568C46.7171 15.22 46.3331 14.758 46.0691 14.182C45.8051 13.606 45.6731 12.982 45.6731 12.31C45.6731 11.398 45.8471 10.588 46.1951 9.88C46.5431 9.16 47.0231 8.602 47.6351 8.206C48.2471 7.798 48.9251 7.594 49.6691 7.594C50.5811 7.594 51.3131 7.912 51.8651 8.548C52.4291 9.172 52.7591 9.946 52.8551 10.87C53.4191 10.834 54.0911 10.714 54.8711 10.51C54.9671 10.486 55.0511 10.474 55.1231 10.474ZM49.2191 14.182C49.6031 14.182 49.9331 14.026 50.2091 13.714C50.4971 13.402 50.6891 12.952 50.7851 12.364C50.4131 12.112 50.1251 11.782 49.9211 11.374C49.7291 10.966 49.6331 10.534 49.6331 10.078C49.6331 9.886 49.6511 9.694 49.6871 9.502H49.5971C49.1171 9.502 48.7151 9.736 48.3911 10.204C48.0791 10.66 47.9231 11.308 47.9231 12.148C47.9231 12.808 48.0491 13.312 48.3011 13.66C48.5651 14.008 48.8711 14.182 49.2191 14.182ZM55.9002 16.09C55.3602 16.09 54.9162 15.844 54.5682 15.352C54.2322 14.848 54.0642 14.224 54.0642 13.48C54.0642 12.58 54.1242 11.758 54.2442 11.014C54.3642 10.258 54.5622 9.46 54.8382 8.62C54.9582 8.26 55.1262 8.002 55.3422 7.846C55.5582 7.69 55.9002 7.612 56.3682 7.612C56.6322 7.612 56.8122 7.654 56.9082 7.738C57.0162 7.822 57.0702 7.948 57.0702 8.116C57.0702 8.212 57.0042 8.536 56.8722 9.088C56.7522 9.532 56.6562 9.934 56.5842 10.294C56.3442 11.554 56.2242 12.394 56.2242 12.814C56.2242 13.066 56.2542 13.246 56.3142 13.354C56.3742 13.45 56.4702 13.498 56.6022 13.498C56.7822 13.498 57.0042 13.318 57.2682 12.958C57.5442 12.598 57.8322 12.052 58.1322 11.32C58.4442 10.588 58.7442 9.688 59.0322 8.62C59.1282 8.26 59.2722 8.002 59.4642 7.846C59.6682 7.69 59.9682 7.612 60.3642 7.612C60.6402 7.612 60.8322 7.648 60.9402 7.72C61.0482 7.78 61.1022 7.9 61.1022 8.08C61.1022 8.38 60.9522 9.202 60.6522 10.546C60.3162 12.082 60.1482 13.03 60.1482 13.39C60.1482 13.618 60.1962 13.798 60.2922 13.93C60.3882 14.05 60.5142 14.11 60.6702 14.11C60.9102 14.11 61.1922 13.966 61.5162 13.678C61.8522 13.378 62.2962 12.898 62.8482 12.238C62.9922 12.07 63.1542 11.986 63.3342 11.986C63.4902 11.986 63.6102 12.058 63.6942 12.202C63.7902 12.346 63.8382 12.544 63.8382 12.796C63.8382 13.276 63.7242 13.648 63.4962 13.912C62.9802 14.548 62.4222 15.07 61.8222 15.478C61.2342 15.886 60.5622 16.09 59.8062 16.09C59.2302 16.09 58.8042 15.868 58.5282 15.424C58.2642 14.98 58.1322 14.356 58.1322 13.552C57.9282 14.368 57.6222 14.998 57.2142 15.442C56.8062 15.874 56.3682 16.09 55.9002 16.09ZM70.4066 11.986C70.5626 11.986 70.6826 12.058 70.7666 12.202C70.8626 12.346 70.9106 12.544 70.9106 12.796C70.9106 13.276 70.7966 13.648 70.5686 13.912C70.0526 14.548 69.4886 15.07 68.8766 15.478C68.2646 15.886 67.5626 16.09 66.7706 16.09C64.3226 16.09 63.0986 14.368 63.0986 10.924C63.0986 10.396 63.1166 9.862 63.1526 9.322H62.4506C62.0906 9.322 61.8446 9.256 61.7126 9.124C61.5926 8.992 61.5326 8.782 61.5326 8.494C61.5326 7.822 61.8026 7.486 62.3426 7.486H63.3686C63.5726 6.166 63.8846 4.96 64.3046 3.868C64.7246 2.776 65.2286 1.906 65.8166 1.258C66.4166 0.609999 67.0586 0.286 67.7426 0.286C68.2466 0.286 68.6426 0.508 68.9306 0.952C69.2186 1.396 69.3626 1.954 69.3626 2.626C69.3626 4.486 68.5826 6.106 67.0226 7.486H69.0386C69.2306 7.486 69.3686 7.528 69.4526 7.612C69.5366 7.696 69.5786 7.852 69.5786 8.08C69.5786 8.908 68.9006 9.322 67.5446 9.322H65.3486C65.3246 9.922 65.3126 10.39 65.3126 10.726C65.3126 11.974 65.4566 12.85 65.7446 13.354C66.0446 13.858 66.5126 14.11 67.1486 14.11C67.6646 14.11 68.1206 13.954 68.5166 13.642C68.9126 13.33 69.3806 12.862 69.9206 12.238C70.0646 12.07 70.2266 11.986 70.4066 11.986ZM67.2566 2.014C67.0766 2.014 66.8726 2.242 66.6446 2.698C66.4286 3.142 66.2186 3.766 66.0146 4.57C65.8226 5.362 65.6606 6.244 65.5286 7.216C66.2366 6.604 66.7646 5.92 67.1126 5.164C67.4726 4.396 67.6526 3.7 67.6526 3.076C67.6526 2.368 67.5206 2.014 67.2566 2.014ZM71.8031 6.424C71.2991 6.424 70.9211 6.31 70.6691 6.082C70.4171 5.842 70.2911 5.512 70.2911 5.092C70.2911 4.672 70.4531 4.324 70.7771 4.048C71.1131 3.76 71.5271 3.616 72.0191 3.616C72.4631 3.616 72.8231 3.724 73.0991 3.94C73.3751 4.156 73.5131 4.462 73.5131 4.858C73.5131 5.338 73.3571 5.722 73.0451 6.01C72.7331 6.286 72.3191 6.424 71.8031 6.424ZM71.6591 16.09C70.8791 16.09 70.3091 15.814 69.9491 15.262C69.6011 14.71 69.4271 13.978 69.4271 13.066C69.4271 12.526 69.4931 11.836 69.6251 10.996C69.7691 10.144 69.9491 9.352 70.1651 8.62C70.2731 8.236 70.4171 7.972 70.5971 7.828C70.7771 7.684 71.0651 7.612 71.4611 7.612C72.0731 7.612 72.3791 7.816 72.3791 8.224C72.3791 8.524 72.2651 9.22 72.0371 10.312C71.7491 11.632 71.6051 12.526 71.6051 12.994C71.6051 13.354 71.6531 13.63 71.7491 13.822C71.8451 14.014 72.0071 14.11 72.2351 14.11C72.4511 14.11 72.7211 13.96 73.0451 13.66C73.3691 13.36 73.8011 12.886 74.3411 12.238C74.4851 12.07 74.6471 11.986 74.8271 11.986C74.9831 11.986 75.1031 12.058 75.1871 12.202C75.2831 12.346 75.3311 12.544 75.3311 12.796C75.3311 13.276 75.2171 13.648 74.9891 13.912C73.8011 15.364 72.6911 16.09 71.6591 16.09ZM83.9727 12.544C84.2487 12.544 84.3867 12.73 84.3867 13.102C84.3867 13.57 84.2787 13.936 84.0627 14.2C83.8587 14.464 83.5767 14.596 83.2167 14.596L82.5507 14.578C82.4307 14.566 82.2567 14.56 82.0287 14.56C82.0767 15.244 82.1007 15.928 82.1007 16.612C82.1007 18.424 81.8607 20.002 81.3807 21.346C80.9127 22.69 80.1747 23.362 79.1667 23.362C78.4827 23.362 77.9607 22.966 77.6007 22.174C77.2527 21.394 77.0787 20.44 77.0787 19.312C77.0787 17.908 77.2347 16.522 77.5467 15.154C77.1387 15.778 76.6047 16.09 75.9447 16.09C75.2847 16.09 74.7327 15.814 74.2887 15.262C73.8567 14.71 73.6407 13.996 73.6407 13.12C73.6407 12.172 73.8627 11.272 74.3067 10.42C74.7627 9.568 75.3627 8.884 76.1067 8.368C76.8627 7.84 77.6667 7.576 78.5187 7.576C78.8067 7.576 79.0287 7.672 79.1847 7.864C79.2927 7.48 79.4547 7.222 79.6707 7.09C79.8867 6.958 80.1867 6.892 80.5707 6.892C80.9787 6.892 81.2487 6.952 81.3807 7.072C81.5247 7.192 81.5907 7.366 81.5787 7.594C81.5787 7.738 81.5007 8.074 81.3447 8.602C81.2007 9.118 81.1047 9.46 81.0567 9.628C80.8647 10.3 80.6547 11.044 80.4267 11.86C80.2107 12.676 80.0367 13.42 79.9047 14.092C79.5207 16.012 79.3287 17.71 79.3287 19.186C79.3287 19.738 79.3707 20.206 79.4547 20.59C79.5507 20.986 79.6707 21.184 79.8147 21.184C79.9347 21.184 80.0607 20.98 80.1927 20.572C80.3367 20.164 80.4567 19.618 80.5527 18.934C80.6487 18.25 80.6967 17.524 80.6967 16.756C80.6967 15.844 80.6547 15.034 80.5707 14.326C80.5587 14.266 80.5527 14.17 80.5527 14.038C80.5527 13.642 80.6487 13.312 80.8407 13.048C81.0447 12.784 81.3267 12.652 81.6867 12.652C81.7347 12.652 82.1907 12.634 83.0547 12.598C83.4147 12.562 83.7207 12.544 83.9727 12.544ZM76.6647 14.272C76.9407 14.272 77.2047 14.104 77.4567 13.768C77.7087 13.42 77.8887 13.006 77.9967 12.526L78.7707 9.25C78.2427 9.262 77.7567 9.448 77.3127 9.808C76.8807 10.168 76.5327 10.648 76.2687 11.248C76.0167 11.836 75.8907 12.46 75.8907 13.12C75.8907 13.492 75.9567 13.78 76.0887 13.984C76.2327 14.176 76.4247 14.272 76.6647 14.272ZM84.7107 16.09C84.1707 16.09 83.7267 15.844 83.3787 15.352C83.0427 14.848 82.8747 14.224 82.8747 13.48C82.8747 12.58 82.9347 11.758 83.0547 11.014C83.1747 10.258 83.3727 9.46 83.6487 8.62C83.7687 8.26 83.9367 8.002 84.1527 7.846C84.3687 7.69 84.7107 7.612 85.1787 7.612C85.4427 7.612 85.6227 7.654 85.7187 7.738C85.8267 7.822 85.8807 7.948 85.8807 8.116C85.8807 8.212 85.8147 8.536 85.6827 9.088C85.5627 9.532 85.4667 9.934 85.3947 10.294C85.1547 11.554 85.0347 12.394 85.0347 12.814C85.0347 13.066 85.0647 13.246 85.1247 13.354C85.1847 13.45 85.2807 13.498 85.4127 13.498C85.5927 13.498 85.8147 13.318 86.0787 12.958C86.3547 12.598 86.6427 12.052 86.9427 11.32C87.2547 10.588 87.5547 9.688 87.8427 8.62C87.9387 8.26 88.0827 8.002 88.2747 7.846C88.4787 7.69 88.7787 7.612 89.1747 7.612C89.4507 7.612 89.6427 7.648 89.7507 7.72C89.8587 7.78 89.9127 7.9 89.9127 8.08C89.9127 8.38 89.7627 9.202 89.4627 10.546C89.1267 12.082 88.9587 13.03 88.9587 13.39C88.9587 13.618 89.0067 13.798 89.1027 13.93C89.1987 14.05 89.3247 14.11 89.4807 14.11C89.7207 14.11 90.0027 13.966 90.3267 13.678C90.6627 13.378 91.1067 12.898 91.6587 12.238C91.8027 12.07 91.9647 11.986 92.1447 11.986C92.3007 11.986 92.4207 12.058 92.5047 12.202C92.6007 12.346 92.6487 12.544 92.6487 12.796C92.6487 13.276 92.5347 13.648 92.3067 13.912C91.7907 14.548 91.2327 15.07 90.6327 15.478C90.0447 15.886 89.3727 16.09 88.6167 16.09C88.0407 16.09 87.6147 15.868 87.3387 15.424C87.0747 14.98 86.9427 14.356 86.9427 13.552C86.7387 14.368 86.4327 14.998 86.0247 15.442C85.6167 15.874 85.1787 16.09 84.7107 16.09ZM97.6332 12.526C97.7892 12.526 97.9092 12.598 97.9932 12.742C98.0892 12.886 98.1372 13.084 98.1372 13.336C98.1372 13.768 98.0352 14.14 97.8312 14.452C97.4952 14.968 97.0512 15.37 96.4992 15.658C95.9592 15.946 95.3112 16.09 94.5552 16.09C93.4032 16.09 92.5092 15.748 91.8732 15.064C91.2372 14.368 90.9192 13.432 90.9192 12.256C90.9192 11.428 91.0932 10.66 91.4412 9.952C91.7892 9.232 92.2692 8.662 92.8812 8.242C93.5052 7.822 94.2072 7.612 94.9872 7.612C95.6832 7.612 96.2412 7.822 96.6612 8.242C97.0812 8.65 97.2912 9.208 97.2912 9.916C97.2912 10.744 96.9912 11.458 96.3912 12.058C95.8032 12.646 94.7952 13.114 93.3672 13.462C93.6552 14.014 94.1412 14.29 94.8252 14.29C95.3172 14.29 95.7192 14.176 96.0312 13.948C96.3552 13.72 96.7272 13.336 97.1472 12.796C97.2912 12.616 97.4532 12.526 97.6332 12.526ZM94.6812 9.376C94.2372 9.376 93.8592 9.634 93.5472 10.15C93.2472 10.666 93.0972 11.29 93.0972 12.022V12.058C93.8052 11.89 94.3632 11.638 94.7712 11.302C95.1792 10.966 95.3832 10.576 95.3832 10.132C95.3832 9.904 95.3172 9.724 95.1852 9.592C95.0652 9.448 94.8972 9.376 94.6812 9.376Z" fill="white"/>
</svg>
