<svg width="14" height="14" viewBox="0 0 14 14" fill="none" xmlns="http://www.w3.org/2000/svg">
<path d="M7.75 1V3C7.75 3.19891 7.67098 3.38968 7.53033 3.53033C7.38968 3.67098 7.19891 3.75 7 3.75C6.80109 3.75 6.61032 3.67098 6.46967 3.53033C6.32902 3.38968 6.25 3.19891 6.25 3V1C6.25 0.801088 6.32902 0.610322 6.46967 0.46967C6.61032 0.329018 6.80109 0.25 7 0.25C7.19891 0.25 7.38968 0.329018 7.53033 0.46967C7.67098 0.610322 7.75 0.801088 7.75 1ZM13 6.25H11C10.8011 6.25 10.6103 6.32902 10.4697 6.46967C10.329 6.61032 10.25 6.80109 10.25 7C10.25 7.19891 10.329 7.38968 10.4697 7.53033C10.6103 7.67098 10.8011 7.75 11 7.75H13C13.1989 7.75 13.3897 7.67098 13.5303 7.53033C13.671 7.38968 13.75 7.19891 13.75 7C13.75 6.80109 13.671 6.61032 13.5303 6.46967C13.3897 6.32902 13.1989 6.25 13 6.25ZM10.3562 9.3C10.2125 9.18031 10.0291 9.11869 9.84224 9.12722C9.65535 9.13575 9.4784 9.21382 9.34611 9.34611C9.21382 9.4784 9.13575 9.65535 9.12722 9.84224C9.11869 10.0291 9.18031 10.2125 9.3 10.3562L10.7125 11.775C10.7823 11.8446 10.8652 11.8997 10.9563 11.9373C11.0475 11.9748 11.1452 11.994 11.2437 11.9937C11.4426 11.9929 11.6332 11.9144 11.775 11.775C11.8449 11.7053 11.9004 11.6225 11.9383 11.5314C11.9761 11.4402 11.9956 11.3425 11.9956 11.2437C11.9956 11.145 11.9761 11.0473 11.9383 10.9561C11.9004 10.865 11.8449 10.7822 11.775 10.7125L10.3562 9.3ZM7 10.25C6.80109 10.25 6.61032 10.329 6.46967 10.4697C6.32902 10.6103 6.25 10.8011 6.25 11V13C6.25 13.1989 6.32902 13.3897 6.46967 13.5303C6.61032 13.671 6.80109 13.75 7 13.75C7.19891 13.75 7.38968 13.671 7.53033 13.5303C7.67098 13.3897 7.75 13.1989 7.75 13V11C7.75 10.8011 7.67098 10.6103 7.53033 10.4697C7.38968 10.329 7.19891 10.25 7 10.25ZM3.64375 9.3L2.225 10.7125C2.15508 10.7822 2.0996 10.865 2.06175 10.9561C2.02389 11.0473 2.00441 11.145 2.00441 11.2437C2.00441 11.3425 2.02389 11.4402 2.06175 11.5314C2.0996 11.6225 2.15508 11.7053 2.225 11.775C2.36679 11.9144 2.55742 11.9929 2.75625 11.9937C2.85483 11.994 2.95249 11.9748 3.04365 11.9373C3.13481 11.8997 3.21767 11.8446 3.2875 11.775L4.7 10.3562C4.81969 10.2125 4.88131 10.0291 4.87278 9.84224C4.86425 9.65535 4.78618 9.4784 4.65389 9.34611C4.52161 9.21382 4.34465 9.13575 4.15776 9.12722C3.97087 9.11869 3.78754 9.18031 3.64375 9.3ZM3.75 7C3.75 6.80109 3.67098 6.61032 3.53033 6.46967C3.38968 6.32902 3.19891 6.25 3 6.25H1C0.801088 6.25 0.610322 6.32902 0.46967 6.46967C0.329018 6.61032 0.25 6.80109 0.25 7C0.25 7.19891 0.329018 7.38968 0.46967 7.53033C0.610322 7.67098 0.801088 7.75 1 7.75H3C3.19891 7.75 3.38968 7.67098 3.53033 7.53033C3.67098 7.38968 3.75 7.19891 3.75 7ZM3.2875 2.225C3.21774 2.15524 3.13491 2.09989 3.04376 2.06214C2.95261 2.02438 2.85491 2.00495 2.75625 2.00495C2.65759 2.00495 2.55989 2.02438 2.46874 2.06214C2.37759 2.09989 2.29476 2.15524 2.225 2.225C2.15524 2.29476 2.09989 2.37759 2.06214 2.46874C2.02438 2.55989 2.00495 2.65759 2.00495 2.75625C2.00495 2.85491 2.02438 2.95261 2.06214 3.04376C2.09989 3.13491 2.15524 3.21774 2.225 3.2875L3.64375 4.7C3.78422 4.83931 3.97404 4.91747 4.17188 4.91747C4.36971 4.91747 4.55953 4.83931 4.7 4.7C4.76973 4.63086 4.82508 4.54859 4.86285 4.45794C4.90062 4.3673 4.92006 4.27007 4.92006 4.17188C4.92006 4.07368 4.90062 3.97645 4.86285 3.88581C4.82508 3.79516 4.76973 3.71289 4.7 3.64375L3.2875 2.225Z" fill="black"/>
</svg>
