<svg width="52" height="48" viewBox="0 0 52 48" fill="none" xmlns="http://www.w3.org/2000/svg">
<path d="M9.504 1.12C9.80444 0.768751 10.1774 0.486754 10.5972 0.293412C11.0171 0.100069 11.4738 -3.04021e-05 11.936 6.92635e-09H39.264C39.7262 -3.04021e-05 40.1829 0.100069 40.6028 0.293412C41.0226 0.486754 41.3956 0.768751 41.696 1.12L50.0448 10.8608C50.7902 11.7307 51.2 12.8384 51.2 13.984V14.8C51.2002 16.3839 50.7055 17.9283 49.785 19.2174C48.8646 20.5064 47.5644 21.4756 46.0662 21.9896C44.568 22.5036 42.9466 22.5366 41.4287 22.0841C39.9108 21.6315 38.5722 20.7161 37.6 19.4656C36.89 20.3801 35.9803 21.1199 34.9403 21.6285C33.9003 22.1372 32.7577 22.4011 31.6 22.4C30.4423 22.4013 29.2996 22.1375 28.2596 21.6289C27.2196 21.1202 26.3098 20.3802 25.6 19.4656C24.8902 20.3802 23.9804 21.1202 22.9404 21.6289C21.9004 22.1375 20.7577 22.4013 19.6 22.4C18.4423 22.4013 17.2996 22.1375 16.2596 21.6289C15.2196 21.1202 14.3098 20.3802 13.6 19.4656C12.6278 20.7161 11.2892 21.6315 9.77132 22.0841C8.25341 22.5366 6.63205 22.5036 5.13384 21.9896C3.63562 21.4756 2.33543 20.5064 1.41498 19.2174C0.494534 17.9283 -0.000174715 16.3839 4.62865e-08 14.8V13.984C4.03441e-05 12.8384 0.409781 11.7307 1.1552 10.8608L9.5072 1.1168L9.504 1.12ZM15.2 14.8C15.2 15.967 15.6636 17.0861 16.4887 17.9113C17.3139 18.7364 18.433 19.2 19.6 19.2C20.767 19.2 21.8861 18.7364 22.7113 17.9113C23.5364 17.0861 24 15.967 24 14.8C24 14.3757 24.1686 13.9687 24.4686 13.6686C24.7687 13.3686 25.1757 13.2 25.6 13.2C26.0243 13.2 26.4313 13.3686 26.7314 13.6686C27.0314 13.9687 27.2 14.3757 27.2 14.8C27.2 15.967 27.6636 17.0861 28.4887 17.9113C29.3139 18.7364 30.433 19.2 31.6 19.2C32.767 19.2 33.8861 18.7364 34.7113 17.9113C35.5364 17.0861 36 15.967 36 14.8C36 14.3757 36.1686 13.9687 36.4686 13.6686C36.7687 13.3686 37.1757 13.2 37.6 13.2C38.0243 13.2 38.4313 13.3686 38.7314 13.6686C39.0314 13.9687 39.2 14.3757 39.2 14.8C39.2 15.967 39.6636 17.0861 40.4887 17.9113C41.3139 18.7364 42.433 19.2 43.6 19.2C44.767 19.2 45.8861 18.7364 46.7113 17.9113C47.5364 17.0861 48 15.967 48 14.8V13.984C48 13.6026 47.8638 13.2338 47.616 12.944L39.264 3.2H11.936L3.584 12.944C3.33615 13.2338 3.19997 13.6026 3.2 13.984V14.8C3.2 15.967 3.66357 17.0861 4.48873 17.9113C5.31389 18.7364 6.43305 19.2 7.6 19.2C8.76695 19.2 9.88611 18.7364 10.7113 17.9113C11.5364 17.0861 12 15.967 12 14.8C12 14.3757 12.1686 13.9687 12.4686 13.6686C12.7687 13.3686 13.1757 13.2 13.6 13.2C14.0243 13.2 14.4313 13.3686 14.7314 13.6686C15.0314 13.9687 15.2 14.3757 15.2 14.8ZM4.8 24C5.22435 24 5.63131 24.1686 5.93137 24.4686C6.23143 24.7687 6.4 25.1757 6.4 25.6V44.8H9.6V28.8C9.6 27.9513 9.93714 27.1374 10.5373 26.5373C11.1374 25.9371 11.9513 25.6 12.8 25.6H22.4C23.2487 25.6 24.0626 25.9371 24.6627 26.5373C25.2629 27.1374 25.6 27.9513 25.6 28.8V44.8H44.8V25.6C44.8 25.1757 44.9686 24.7687 45.2686 24.4686C45.5687 24.1686 45.9757 24 46.4 24C46.8243 24 47.2313 24.1686 47.5314 24.4686C47.8314 24.7687 48 25.1757 48 25.6V44.8H49.6C50.0243 44.8 50.4313 44.9686 50.7314 45.2686C51.0314 45.5687 51.2 45.9757 51.2 46.4C51.2 46.8243 51.0314 47.2313 50.7314 47.5314C50.4313 47.8314 50.0243 48 49.6 48H1.6C1.17565 48 0.768687 47.8314 0.468629 47.5314C0.168571 47.2313 4.62865e-08 46.8243 4.62865e-08 46.4C4.62865e-08 45.9757 0.168571 45.5687 0.468629 45.2686C0.768687 44.9686 1.17565 44.8 1.6 44.8H3.2V25.6C3.2 25.1757 3.36857 24.7687 3.66863 24.4686C3.96869 24.1686 4.37565 24 4.8 24ZM12.8 44.8H22.4V28.8H12.8V44.8ZM28.8 28.8C28.8 27.9513 29.1371 27.1374 29.7373 26.5373C30.3374 25.9371 31.1513 25.6 32 25.6H38.4C39.2487 25.6 40.0626 25.9371 40.6627 26.5373C41.2629 27.1374 41.6 27.9513 41.6 28.8V38.4C41.6 39.2487 41.2629 40.0626 40.6627 40.6627C40.0626 41.2629 39.2487 41.6 38.4 41.6H32C31.1513 41.6 30.3374 41.2629 29.7373 40.6627C29.1371 40.0626 28.8 39.2487 28.8 38.4V28.8ZM38.4 28.8H32V38.4H38.4V28.8Z" fill="black"/>
</svg>
