<svg width="28" height="28" viewBox="0 0 28 28" fill="none" xmlns="http://www.w3.org/2000/svg">
<path d="M15.5 2V6C15.5 6.39782 15.342 6.77936 15.0607 7.06066C14.7794 7.34196 14.3978 7.5 14 7.5C13.6022 7.5 13.2206 7.34196 12.9393 7.06066C12.658 6.77936 12.5 6.39782 12.5 6V2C12.5 1.60218 12.658 1.22064 12.9393 0.93934C13.2206 0.658035 13.6022 0.5 14 0.5C14.3978 0.5 14.7794 0.658035 15.0607 0.93934C15.342 1.22064 15.5 1.60218 15.5 2ZM26 12.5H22C21.6022 12.5 21.2206 12.658 20.9393 12.9393C20.658 13.2206 20.5 13.6022 20.5 14C20.5 14.3978 20.658 14.7794 20.9393 15.0607C21.2206 15.342 21.6022 15.5 22 15.5H26C26.3978 15.5 26.7794 15.342 27.0607 15.0607C27.342 14.7794 27.5 14.3978 27.5 14C27.5 13.6022 27.342 13.2206 27.0607 12.9393C26.7794 12.658 26.3978 12.5 26 12.5ZM20.7125 18.6C20.4249 18.3606 20.0583 18.2374 19.6845 18.2544C19.3107 18.2715 18.9568 18.4276 18.6922 18.6922C18.4276 18.9568 18.2715 19.3107 18.2544 19.6845C18.2374 20.0583 18.3606 20.4249 18.6 20.7125L21.425 23.55C21.5647 23.6892 21.7304 23.7994 21.9127 23.8745C22.095 23.9496 22.2903 23.988 22.4875 23.9875C22.8852 23.9858 23.2664 23.8288 23.55 23.55C23.6898 23.4106 23.8008 23.2451 23.8765 23.0627C23.9522 22.8804 23.9912 22.6849 23.9912 22.4875C23.9912 22.2901 23.9522 22.0946 23.8765 21.9123C23.8008 21.7299 23.6898 21.5644 23.55 21.425L20.7125 18.6ZM14 20.5C13.6022 20.5 13.2206 20.658 12.9393 20.9393C12.658 21.2206 12.5 21.6022 12.5 22V26C12.5 26.3978 12.658 26.7794 12.9393 27.0607C13.2206 27.342 13.6022 27.5 14 27.5C14.3978 27.5 14.7794 27.342 15.0607 27.0607C15.342 26.7794 15.5 26.3978 15.5 26V22C15.5 21.6022 15.342 21.2206 15.0607 20.9393C14.7794 20.658 14.3978 20.5 14 20.5ZM7.2875 18.6L4.45 21.425C4.31016 21.5644 4.1992 21.7299 4.1235 21.9123C4.04779 22.0946 4.00882 22.2901 4.00882 22.4875C4.00882 22.6849 4.04779 22.8804 4.1235 23.0627C4.1992 23.2451 4.31016 23.4106 4.45 23.55C4.73358 23.8288 5.11484 23.9858 5.5125 23.9875C5.70966 23.988 5.90499 23.9496 6.0873 23.8745C6.26962 23.7994 6.43534 23.6892 6.575 23.55L9.4 20.7125C9.63937 20.4249 9.76263 20.0583 9.74557 19.6845C9.72851 19.3107 9.57237 18.9568 9.30779 18.6922C9.04321 18.4276 8.6893 18.2715 8.31552 18.2544C7.94174 18.2374 7.57508 18.3606 7.2875 18.6ZM7.5 14C7.5 13.6022 7.34196 13.2206 7.06066 12.9393C6.77936 12.658 6.39782 12.5 6 12.5H2C1.60218 12.5 1.22064 12.658 0.93934 12.9393C0.658035 13.2206 0.5 13.6022 0.5 14C0.5 14.3978 0.658035 14.7794 0.93934 15.0607C1.22064 15.342 1.60218 15.5 2 15.5H6C6.39782 15.5 6.77936 15.342 7.06066 15.0607C7.34196 14.7794 7.5 14.3978 7.5 14ZM6.575 4.45C6.43547 4.31047 6.26982 4.19979 6.08752 4.12428C5.90522 4.04876 5.70982 4.0099 5.5125 4.0099C5.31518 4.0099 5.11978 4.04876 4.93748 4.12428C4.75518 4.19979 4.58953 4.31047 4.45 4.45C4.31047 4.58953 4.19979 4.75518 4.12428 4.93748C4.04876 5.11978 4.0099 5.31518 4.0099 5.5125C4.0099 5.70982 4.04876 5.90522 4.12428 6.08752C4.19979 6.26982 4.31047 6.43547 4.45 6.575L7.2875 9.4C7.56844 9.67862 7.94808 9.83495 8.34375 9.83495C8.73942 9.83495 9.11906 9.67862 9.4 9.4C9.53946 9.26171 9.65015 9.09718 9.72569 8.91589C9.80123 8.7346 9.84013 8.54015 9.84013 8.34375C9.84013 8.14735 9.80123 7.9529 9.72569 7.77161C9.65015 7.59032 9.53946 7.42579 9.4 7.2875L6.575 4.45Z" fill="black"/>
</svg>
