<svg width="77" height="48" viewBox="0 0 77 48" fill="none" xmlns="http://www.w3.org/2000/svg">
<path d="M27.0942 3.08C27.5902 3.176 27.9582 3.344 28.1982 3.584C28.4542 3.824 28.5822 4.104 28.5822 4.424C28.5822 4.952 28.4302 5.336 28.1262 5.576C27.8382 5.816 27.3742 5.912 26.7342 5.864C25.2942 5.752 24.1662 5.68 23.3502 5.648C22.5502 5.6 21.4942 5.568 20.1822 5.552C19.5902 8.496 19.0462 11.456 18.5502 14.432C18.3742 15.52 18.1902 16.784 17.9982 18.224C17.8062 19.648 17.6782 20.8 17.6142 21.68C17.5822 22.144 17.3902 22.504 17.0382 22.76C16.6862 23 16.2622 23.12 15.7662 23.12C15.2382 23.12 14.8302 22.992 14.5422 22.736C14.2542 22.48 14.1102 22.144 14.1102 21.728C14.1102 21.344 14.1662 20.712 14.2782 19.832C14.4062 18.936 14.5502 18 14.7102 17.024C14.8862 16.048 15.0222 15.2 15.1182 14.48C15.2942 13.264 15.4942 12.056 15.7182 10.856C15.9422 9.656 16.1662 8.52 16.3902 7.448C16.4382 7.208 16.4942 6.936 16.5582 6.632C16.6222 6.312 16.6942 5.96 16.7742 5.576C15.2062 5.624 13.9742 5.752 13.0782 5.96C12.1822 6.168 11.5422 6.464 11.1582 6.848C10.7902 7.216 10.6062 7.696 10.6062 8.288C10.6062 8.832 10.7662 9.352 11.0862 9.848C11.1502 9.96 11.1822 10.08 11.1822 10.208C11.1822 10.512 10.9982 10.8 10.6302 11.072C10.2782 11.328 9.91016 11.456 9.52616 11.456C9.25416 11.456 9.03016 11.376 8.85416 11.216C8.53416 10.944 8.27016 10.56 8.06216 10.064C7.85416 9.552 7.75016 8.976 7.75016 8.336C7.75016 6.976 8.19016 5.888 9.07016 5.072C9.96616 4.24 11.3182 3.632 13.1262 3.248C14.9502 2.864 17.2862 2.672 20.1342 2.672C21.8942 2.672 23.2942 2.704 24.3342 2.768C25.3902 2.832 26.3102 2.936 27.0942 3.08ZM25.4751 23.12C24.4831 23.12 23.6911 22.76 23.0991 22.04C22.5071 21.32 22.2111 20.376 22.2111 19.208C22.2111 17.928 22.5071 16.72 23.0991 15.584C23.6911 14.432 24.4751 13.512 25.4511 12.824C26.4431 12.12 27.4911 11.768 28.5951 11.768C28.9471 11.768 29.1791 11.84 29.2911 11.984C29.4191 12.112 29.5231 12.352 29.6031 12.704C29.9391 12.64 30.2911 12.608 30.6591 12.608C31.4431 12.608 31.8351 12.888 31.8351 13.448C31.8351 13.784 31.7151 14.584 31.4751 15.848C31.1071 17.688 30.9231 18.968 30.9231 19.688C30.9231 19.928 30.9791 20.12 31.0911 20.264C31.2191 20.408 31.3791 20.48 31.5711 20.48C31.8751 20.48 32.2431 20.288 32.6751 19.904C33.1071 19.504 33.6911 18.864 34.4271 17.984C34.6191 17.76 34.8351 17.648 35.0751 17.648C35.2831 17.648 35.4431 17.744 35.5551 17.936C35.6831 18.128 35.7471 18.392 35.7471 18.728C35.7471 19.368 35.5951 19.864 35.2911 20.216C34.6351 21.032 33.9391 21.72 33.2031 22.28C32.4671 22.84 31.7551 23.12 31.0671 23.12C30.5391 23.12 30.0511 22.944 29.6031 22.592C29.1711 22.224 28.8431 21.728 28.6191 21.104C27.7871 22.448 26.7391 23.12 25.4751 23.12ZM26.3391 20.696C26.6911 20.696 27.0271 20.488 27.3471 20.072C27.6671 19.656 27.8991 19.104 28.0431 18.416L28.9311 14C28.2591 14.016 27.6351 14.272 27.0591 14.768C26.4991 15.248 26.0511 15.888 25.7151 16.688C25.3791 17.488 25.2111 18.336 25.2111 19.232C25.2111 19.728 25.3071 20.096 25.4991 20.336C25.7071 20.576 25.9871 20.696 26.3391 20.696ZM36.9405 10.232C36.2685 10.232 35.7645 10.08 35.4285 9.776C35.0925 9.456 34.9245 9.016 34.9245 8.456C34.9245 7.896 35.1405 7.432 35.5725 7.064C36.0205 6.68 36.5725 6.488 37.2285 6.488C37.8205 6.488 38.3005 6.632 38.6685 6.92C39.0365 7.208 39.2205 7.616 39.2205 8.144C39.2205 8.784 39.0125 9.296 38.5965 9.68C38.1805 10.048 37.6285 10.232 36.9405 10.232ZM36.7485 23.12C35.7085 23.12 34.9485 22.752 34.4685 22.016C34.0045 21.28 33.7725 20.304 33.7725 19.088C33.7725 18.368 33.8605 17.448 34.0365 16.328C34.2285 15.192 34.4685 14.136 34.7565 13.16C34.9005 12.648 35.0925 12.296 35.3325 12.104C35.5725 11.912 35.9565 11.816 36.4845 11.816C37.3005 11.816 37.7085 12.088 37.7085 12.632C37.7085 13.032 37.5565 13.96 37.2525 15.416C36.8685 17.176 36.6765 18.368 36.6765 18.992C36.6765 19.472 36.7405 19.84 36.8685 20.096C36.9965 20.352 37.2125 20.48 37.5165 20.48C37.8045 20.48 38.1645 20.28 38.5965 19.88C39.0285 19.48 39.6045 18.848 40.3245 17.984C40.5165 17.76 40.7325 17.648 40.9725 17.648C41.1805 17.648 41.3405 17.744 41.4525 17.936C41.5805 18.128 41.6445 18.392 41.6445 18.728C41.6445 19.368 41.4925 19.864 41.1885 20.216C39.6045 22.152 38.1245 23.12 36.7485 23.12ZM48.7988 17.648C49.0068 17.648 49.1668 17.744 49.2788 17.936C49.4068 18.128 49.4708 18.392 49.4708 18.728C49.4708 19.368 49.3188 19.864 49.0148 20.216C48.3268 21.064 47.5748 21.76 46.7588 22.304C45.9588 22.848 45.0468 23.12 44.0228 23.12C42.6148 23.12 41.5668 22.48 40.8788 21.2C40.2068 19.92 39.8708 18.264 39.8708 16.232C39.8708 14.28 40.1188 12.056 40.6148 9.56C41.1268 7.064 41.8708 4.92 42.8468 3.128C43.8388 1.336 45.0148 0.439999 46.3748 0.439999C47.1428 0.439999 47.7428 0.799999 48.1748 1.52C48.6228 2.224 48.8468 3.24 48.8468 4.568C48.8468 6.472 48.3188 8.68 47.2628 11.192C46.2068 13.704 44.7748 16.192 42.9668 18.656C43.0788 19.312 43.2628 19.784 43.5188 20.072C43.7748 20.344 44.1108 20.48 44.5268 20.48C45.1828 20.48 45.7588 20.296 46.2548 19.928C46.7508 19.544 47.3828 18.896 48.1508 17.984C48.3428 17.76 48.5588 17.648 48.7988 17.648ZM45.8468 2.816C45.4788 2.816 45.0628 3.48 44.5988 4.808C44.1348 6.136 43.7268 7.784 43.3748 9.752C43.0228 11.72 42.8308 13.608 42.7988 15.416C43.9348 13.544 44.8388 11.672 45.5108 9.8C46.1828 7.912 46.5188 6.192 46.5188 4.64C46.5188 3.424 46.2948 2.816 45.8468 2.816ZM59.7709 15.632C59.9789 15.632 60.1389 15.736 60.2509 15.944C60.3629 16.152 60.4189 16.416 60.4189 16.736C60.4189 17.504 60.1869 17.96 59.7229 18.104C58.7629 18.44 57.7069 18.632 56.5549 18.68C56.2509 20.024 55.6509 21.104 54.7549 21.92C53.8589 22.72 52.8429 23.12 51.7069 23.12C50.7469 23.12 49.9229 22.888 49.2349 22.424C48.5629 21.96 48.0509 21.344 47.6989 20.576C47.3469 19.808 47.1709 18.976 47.1709 18.08C47.1709 16.864 47.4029 15.784 47.8669 14.84C48.3309 13.88 48.9709 13.136 49.7869 12.608C50.6029 12.064 51.5069 11.792 52.4989 11.792C53.7149 11.792 54.6909 12.216 55.4269 13.064C56.1789 13.896 56.6189 14.928 56.7469 16.16C57.4989 16.112 58.3949 15.952 59.4349 15.68C59.5629 15.648 59.6749 15.632 59.7709 15.632ZM51.8989 20.576C52.4109 20.576 52.8509 20.368 53.2189 19.952C53.6029 19.536 53.8589 18.936 53.9869 18.152C53.4909 17.816 53.1069 17.376 52.8349 16.832C52.5789 16.288 52.4509 15.712 52.4509 15.104C52.4509 14.848 52.4749 14.592 52.5229 14.336H52.4029C51.7629 14.336 51.2269 14.648 50.7949 15.272C50.3789 15.88 50.1709 16.744 50.1709 17.864C50.1709 18.744 50.3389 19.416 50.6749 19.88C51.0269 20.344 51.4349 20.576 51.8989 20.576ZM68.055 15.104C68.407 15.104 68.703 15.232 68.943 15.488C69.199 15.728 69.327 16.032 69.327 16.4C69.327 16.608 69.279 16.832 69.183 17.072C68.927 17.664 68.567 18.16 68.103 18.56C67.639 18.96 67.127 19.16 66.567 19.16C66.119 19.16 65.735 19 65.415 18.68C65.111 18.36 64.959 17.928 64.959 17.384C64.959 17.08 64.975 16.752 65.007 16.4C65.039 16.144 65.055 15.968 65.055 15.872C65.055 15.744 65.023 15.648 64.959 15.584C64.911 15.52 64.847 15.488 64.767 15.488C64.543 15.488 64.239 15.76 63.855 16.304C63.471 16.832 63.087 17.536 62.703 18.416C62.319 19.296 62.007 20.224 61.767 21.2C61.591 21.968 61.391 22.48 61.167 22.736C60.943 22.992 60.575 23.12 60.063 23.12C59.455 23.12 59.023 22.8 58.767 22.16C58.527 21.52 58.407 20.496 58.407 19.088C58.407 17.008 58.703 15.032 59.295 13.16C59.439 12.696 59.671 12.36 59.991 12.152C60.327 11.928 60.791 11.816 61.383 11.816C61.703 11.816 61.927 11.856 62.055 11.936C62.183 12.016 62.247 12.168 62.247 12.392C62.247 12.648 62.127 13.224 61.887 14.12C61.727 14.76 61.599 15.32 61.503 15.8C61.407 16.28 61.327 16.872 61.263 17.576C61.791 16.2 62.383 15.08 63.039 14.216C63.695 13.352 64.335 12.736 64.959 12.368C65.583 12 66.151 11.816 66.663 11.816C67.127 11.816 67.479 11.952 67.719 12.224C67.975 12.48 68.103 12.864 68.103 13.376C68.103 13.68 68.015 14.256 67.839 15.104H68.055ZM5.89222 47.12C5.30022 47.12 4.87622 46.992 4.62022 46.736C4.36422 46.464 4.23622 45.96 4.23622 45.224C4.23622 44.728 4.28422 44.096 4.38022 43.328C4.49222 42.544 4.66822 41.472 4.90822 40.112C5.32422 37.6 5.65222 35.424 5.89222 33.584C6.03622 32.432 6.10822 31.472 6.10822 30.704C6.10822 29.984 5.84422 29.624 5.31622 29.624C4.90022 29.624 4.39622 29.84 3.80422 30.272C3.22822 30.688 2.58822 31.36 1.88422 32.288C1.66022 32.592 1.41222 32.744 1.14022 32.744C0.916219 32.744 0.716219 32.64 0.540219 32.432C0.380219 32.208 0.300219 31.96 0.300219 31.688C0.300219 31.432 0.348219 31.176 0.444219 30.92C0.556219 30.648 0.732219 30.344 0.972219 30.008C1.74022 28.936 2.59622 28.112 3.54022 27.536C4.48422 26.944 5.42822 26.648 6.37222 26.648C7.25222 26.648 7.92422 26.928 8.38822 27.488C8.86822 28.048 9.10822 28.864 9.10822 29.936C9.10822 30.368 9.06822 30.88 8.98822 31.472C8.90822 32.048 8.83622 32.52 8.77222 32.888C8.70822 33.256 8.66022 33.512 8.62822 33.656C9.54022 31.048 10.5642 29.232 11.7002 28.208C12.8362 27.168 14.0842 26.648 15.4442 26.648C16.4842 26.648 17.3002 27.016 17.8922 27.752C18.5002 28.488 18.8042 29.528 18.8042 30.872C18.8042 31.4 18.7322 32.056 18.5882 32.84C19.3882 30.632 20.3242 29.048 21.3962 28.088C22.4682 27.128 23.7002 26.648 25.0922 26.648C26.2122 26.648 27.0682 27.008 27.6602 27.728C28.2682 28.448 28.5722 29.456 28.5722 30.752C28.5722 31.456 28.4682 32.312 28.2602 33.32L26.7962 40.184C26.6362 40.984 26.5562 41.672 26.5562 42.248C26.5562 42.92 26.7082 43.424 27.0122 43.76C27.3322 44.096 27.7722 44.264 28.3322 44.264C28.8602 44.264 29.3722 44.088 29.8682 43.736C30.3802 43.384 30.9802 42.8 31.6682 41.984C31.8602 41.76 32.0762 41.648 32.3162 41.648C32.5242 41.648 32.6842 41.744 32.7962 41.936C32.9242 42.128 32.9882 42.392 32.9882 42.728C32.9882 43.352 32.8362 43.848 32.5322 44.216C31.7002 45.224 30.8762 45.96 30.0602 46.424C29.2442 46.888 28.3882 47.12 27.4922 47.12C26.1322 47.12 25.0682 46.72 24.3002 45.92C23.5322 45.104 23.1482 44.016 23.1482 42.656C23.1482 41.712 23.3402 40.344 23.7242 38.552L24.6842 34.16C24.7162 34.016 24.7722 33.76 24.8522 33.392C24.9322 33.024 24.9962 32.68 25.0442 32.36C25.0922 32.024 25.1162 31.696 25.1162 31.376C25.1162 30.816 25.0042 30.4 24.7802 30.128C24.5722 29.84 24.2682 29.696 23.8682 29.696C23.1162 29.696 22.3242 30.184 21.4922 31.16C20.6762 32.12 19.8922 33.72 19.1402 35.96C18.4042 38.2 17.8042 41.112 17.3402 44.696C17.2282 45.656 17.0282 46.304 16.7402 46.64C16.4682 46.96 16.0202 47.12 15.3962 47.12C14.8522 47.12 14.4522 46.992 14.1962 46.736C13.9562 46.48 13.8362 46 13.8362 45.296C13.8362 44.64 13.9242 43.784 14.1002 42.728C14.2762 41.656 14.5002 40.4 14.7722 38.96C15.5082 35.088 15.8762 32.592 15.8762 31.472C15.8762 30.864 15.7562 30.416 15.5162 30.128C15.2922 29.84 14.9482 29.696 14.4842 29.696C13.7002 29.696 12.8922 30.144 12.0602 31.04C11.2282 31.92 10.4122 33.496 9.61222 35.768C8.82822 38.024 8.17222 41.08 7.64422 44.936C7.53222 45.752 7.36422 46.32 7.14022 46.64C6.93222 46.96 6.51622 47.12 5.89222 47.12ZM43.2943 39.632C43.5023 39.632 43.6623 39.736 43.7743 39.944C43.8863 40.152 43.9423 40.416 43.9423 40.736C43.9423 41.504 43.7103 41.96 43.2463 42.104C42.2863 42.44 41.2303 42.632 40.0783 42.68C39.7743 44.024 39.1743 45.104 38.2783 45.92C37.3823 46.72 36.3663 47.12 35.2303 47.12C34.2703 47.12 33.4463 46.888 32.7583 46.424C32.0863 45.96 31.5743 45.344 31.2223 44.576C30.8703 43.808 30.6943 42.976 30.6943 42.08C30.6943 40.864 30.9263 39.784 31.3903 38.84C31.8543 37.88 32.4943 37.136 33.3103 36.608C34.1263 36.064 35.0303 35.792 36.0223 35.792C37.2383 35.792 38.2143 36.216 38.9503 37.064C39.7023 37.896 40.1423 38.928 40.2703 40.16C41.0223 40.112 41.9183 39.952 42.9583 39.68C43.0863 39.648 43.1983 39.632 43.2943 39.632ZM35.4223 44.576C35.9343 44.576 36.3743 44.368 36.7423 43.952C37.1263 43.536 37.3823 42.936 37.5103 42.152C37.0143 41.816 36.6303 41.376 36.3583 40.832C36.1023 40.288 35.9743 39.712 35.9743 39.104C35.9743 38.848 35.9983 38.592 36.0463 38.336H35.9263C35.2863 38.336 34.7503 38.648 34.3183 39.272C33.9023 39.88 33.6943 40.744 33.6943 41.864C33.6943 42.744 33.8623 43.416 34.1983 43.88C34.5503 44.344 34.9583 44.576 35.4223 44.576ZM54.6505 39.632C54.8585 39.632 55.0185 39.736 55.1305 39.944C55.2425 40.152 55.2985 40.416 55.2985 40.736C55.2985 41.136 55.2425 41.448 55.1305 41.672C55.0185 41.88 54.8425 42.024 54.6025 42.104C53.6425 42.44 52.5865 42.632 51.4345 42.68C51.1145 44.008 50.5065 45.08 49.6105 45.896C48.7305 46.712 47.7545 47.12 46.6825 47.12C45.0665 47.12 43.8905 46.504 43.1545 45.272C42.4185 44.04 42.0505 42.256 42.0505 39.92C42.0505 37.856 42.3065 35.616 42.8185 33.2C43.3305 30.768 44.0745 28.704 45.0505 27.008C46.0425 25.296 47.2185 24.44 48.5785 24.44C49.3145 24.44 49.9065 24.76 50.3545 25.4C50.8025 26.024 51.0265 26.84 51.0265 27.848C51.0265 29.16 50.7785 30.464 50.2825 31.76C49.7865 33.056 48.9625 34.416 47.8105 35.84C48.8825 35.92 49.7545 36.368 50.4265 37.184C51.0985 37.984 51.4985 38.976 51.6265 40.16C52.3785 40.112 53.2745 39.952 54.3145 39.68C54.4105 39.648 54.5225 39.632 54.6505 39.632ZM48.0265 26.816C47.7065 26.816 47.3545 27.296 46.9705 28.256C46.6025 29.2 46.2585 30.488 45.9385 32.12C45.6185 33.752 45.3785 35.536 45.2185 37.472C46.2745 35.536 47.1145 33.832 47.7385 32.36C48.3785 30.872 48.6985 29.552 48.6985 28.4C48.6985 27.888 48.6345 27.496 48.5065 27.224C48.3945 26.952 48.2345 26.816 48.0265 26.816ZM46.7785 44.576C47.2745 44.576 47.7145 44.368 48.0985 43.952C48.4825 43.536 48.7385 42.936 48.8665 42.152C48.3705 41.816 47.9865 41.376 47.7145 40.832C47.4585 40.288 47.3305 39.712 47.3305 39.104C47.3305 38.88 47.3625 38.576 47.4265 38.192H47.3545C46.6985 38.192 46.1465 38.52 45.6985 39.176C45.2665 39.816 45.0505 40.68 45.0505 41.768C45.0505 42.68 45.2185 43.376 45.5545 43.856C45.9065 44.336 46.3145 44.576 46.7785 44.576ZM56.3702 34.232C55.6982 34.232 55.1942 34.08 54.8582 33.776C54.5222 33.456 54.3542 33.016 54.3542 32.456C54.3542 31.896 54.5702 31.432 55.0022 31.064C55.4502 30.68 56.0022 30.488 56.6582 30.488C57.2502 30.488 57.7302 30.632 58.0982 30.92C58.4662 31.208 58.6502 31.616 58.6502 32.144C58.6502 32.784 58.4422 33.296 58.0262 33.68C57.6102 34.048 57.0582 34.232 56.3702 34.232ZM56.1782 47.12C55.1382 47.12 54.3782 46.752 53.8982 46.016C53.4342 45.28 53.2022 44.304 53.2022 43.088C53.2022 42.368 53.2902 41.448 53.4662 40.328C53.6582 39.192 53.8982 38.136 54.1862 37.16C54.3302 36.648 54.5222 36.296 54.7622 36.104C55.0022 35.912 55.3862 35.816 55.9142 35.816C56.7302 35.816 57.1382 36.088 57.1382 36.632C57.1382 37.032 56.9862 37.96 56.6822 39.416C56.2982 41.176 56.1062 42.368 56.1062 42.992C56.1062 43.472 56.1702 43.84 56.2982 44.096C56.4262 44.352 56.6422 44.48 56.9462 44.48C57.2342 44.48 57.5942 44.28 58.0262 43.88C58.4582 43.48 59.0342 42.848 59.7542 41.984C59.9462 41.76 60.1622 41.648 60.4022 41.648C60.6102 41.648 60.7702 41.744 60.8822 41.936C61.0102 42.128 61.0742 42.392 61.0742 42.728C61.0742 43.368 60.9222 43.864 60.6182 44.216C59.0342 46.152 57.5542 47.12 56.1782 47.12ZM68.2285 41.648C68.4365 41.648 68.5965 41.744 68.7085 41.936C68.8365 42.128 68.9005 42.392 68.9005 42.728C68.9005 43.368 68.7485 43.864 68.4445 44.216C67.7565 45.064 67.0045 45.76 66.1885 46.304C65.3885 46.848 64.4765 47.12 63.4525 47.12C62.0445 47.12 60.9965 46.48 60.3085 45.2C59.6365 43.92 59.3005 42.264 59.3005 40.232C59.3005 38.28 59.5485 36.056 60.0445 33.56C60.5565 31.064 61.3005 28.92 62.2765 27.128C63.2685 25.336 64.4445 24.44 65.8045 24.44C66.5725 24.44 67.1725 24.8 67.6045 25.52C68.0525 26.224 68.2765 27.24 68.2765 28.568C68.2765 30.472 67.7485 32.68 66.6925 35.192C65.6365 37.704 64.2045 40.192 62.3965 42.656C62.5085 43.312 62.6925 43.784 62.9485 44.072C63.2045 44.344 63.5405 44.48 63.9565 44.48C64.6125 44.48 65.1885 44.296 65.6845 43.928C66.1805 43.544 66.8125 42.896 67.5805 41.984C67.7725 41.76 67.9885 41.648 68.2285 41.648ZM65.2765 26.816C64.9085 26.816 64.4925 27.48 64.0285 28.808C63.5645 30.136 63.1565 31.784 62.8045 33.752C62.4525 35.72 62.2605 37.608 62.2285 39.416C63.3645 37.544 64.2685 35.672 64.9405 33.8C65.6125 31.912 65.9485 30.192 65.9485 28.64C65.9485 27.424 65.7245 26.816 65.2765 26.816ZM75.5526 42.368C75.7606 42.368 75.9206 42.464 76.0326 42.656C76.1606 42.848 76.2246 43.112 76.2246 43.448C76.2246 44.024 76.0886 44.52 75.8166 44.936C75.3686 45.624 74.7766 46.16 74.0406 46.544C73.3206 46.928 72.4566 47.12 71.4486 47.12C69.9126 47.12 68.7206 46.664 67.8726 45.752C67.0246 44.824 66.6006 43.576 66.6006 42.008C66.6006 40.904 66.8326 39.88 67.2966 38.936C67.7606 37.976 68.4006 37.216 69.2166 36.656C70.0486 36.096 70.9846 35.816 72.0246 35.816C72.9526 35.816 73.6966 36.096 74.2566 36.656C74.8166 37.2 75.0966 37.944 75.0966 38.888C75.0966 39.992 74.6966 40.944 73.8966 41.744C73.1126 42.528 71.7686 43.152 69.8646 43.616C70.2486 44.352 70.8966 44.72 71.8086 44.72C72.4646 44.72 73.0006 44.568 73.4166 44.264C73.8486 43.96 74.3446 43.448 74.9046 42.728C75.0966 42.488 75.3126 42.368 75.5526 42.368ZM71.6166 38.168C71.0246 38.168 70.5206 38.512 70.1046 39.2C69.7046 39.888 69.5046 40.72 69.5046 41.696V41.744C70.4486 41.52 71.1926 41.184 71.7366 40.736C72.2806 40.288 72.5526 39.768 72.5526 39.176C72.5526 38.872 72.4646 38.632 72.2886 38.456C72.1286 38.264 71.9046 38.168 71.6166 38.168Z" fill="black"/>
</svg>
