<svg width="109" height="18" viewBox="0 0 109 18" fill="none" xmlns="http://www.w3.org/2000/svg">
<path d="M15.1819 2.06C15.5539 2.132 15.8299 2.258 16.0099 2.438C16.2019 2.618 16.2979 2.828 16.2979 3.068C16.2979 3.464 16.1839 3.752 15.9559 3.932C15.7399 4.112 15.3919 4.184 14.9119 4.148C13.8319 4.064 12.9859 4.01 12.3739 3.986C11.7739 3.95 10.9819 3.926 9.99795 3.914C9.55395 6.122 9.14595 8.342 8.77395 10.574C8.64195 11.39 8.50395 12.338 8.35995 13.418C8.21595 14.486 8.11995 15.35 8.07195 16.01C8.04795 16.358 7.90395 16.628 7.63995 16.82C7.37595 17 7.05795 17.09 6.68595 17.09C6.28995 17.09 5.98395 16.994 5.76795 16.802C5.55195 16.61 5.44395 16.358 5.44395 16.046C5.44395 15.758 5.48595 15.284 5.56995 14.624C5.66595 13.952 5.77395 13.25 5.89395 12.518C6.02595 11.786 6.12795 11.15 6.19995 10.61C6.33195 9.698 6.48195 8.792 6.64995 7.892C6.81795 6.992 6.98595 6.14 7.15395 5.336C7.18995 5.156 7.23195 4.952 7.27995 4.724C7.32795 4.484 7.38195 4.22 7.44195 3.932C6.26595 3.968 5.34195 4.064 4.66995 4.22C3.99795 4.376 3.51795 4.598 3.22995 4.886C2.95395 5.162 2.81595 5.522 2.81595 5.966C2.81595 6.374 2.93595 6.764 3.17595 7.136C3.22395 7.22 3.24795 7.31 3.24795 7.406C3.24795 7.634 3.10995 7.85 2.83395 8.054C2.56995 8.246 2.29395 8.342 2.00595 8.342C1.80195 8.342 1.63395 8.282 1.50195 8.162C1.26195 7.958 1.06395 7.67 0.907945 7.298C0.751945 6.914 0.673945 6.482 0.673945 6.002C0.673945 4.982 1.00395 4.166 1.66395 3.554C2.33595 2.93 3.34995 2.474 4.70595 2.186C6.07395 1.898 7.82595 1.754 9.96195 1.754C11.2819 1.754 12.3319 1.778 13.1119 1.826C13.9039 1.874 14.5939 1.952 15.1819 2.06ZM13.9676 17.09C13.2236 17.09 12.6296 16.82 12.1856 16.28C11.7416 15.74 11.5196 15.032 11.5196 14.156C11.5196 13.196 11.7416 12.29 12.1856 11.438C12.6296 10.574 13.2176 9.884 13.9496 9.368C14.6936 8.84 15.4796 8.576 16.3076 8.576C16.5716 8.576 16.7456 8.63 16.8296 8.738C16.9256 8.834 17.0036 9.014 17.0636 9.278C17.3156 9.23 17.5796 9.206 17.8556 9.206C18.4436 9.206 18.7376 9.416 18.7376 9.836C18.7376 10.088 18.6476 10.688 18.4676 11.636C18.1916 13.016 18.0536 13.976 18.0536 14.516C18.0536 14.696 18.0956 14.84 18.1796 14.948C18.2756 15.056 18.3956 15.11 18.5396 15.11C18.7676 15.11 19.0436 14.966 19.3676 14.678C19.6916 14.378 20.1296 13.898 20.6816 13.238C20.8256 13.07 20.9876 12.986 21.1676 12.986C21.3236 12.986 21.4436 13.058 21.5276 13.202C21.6236 13.346 21.6716 13.544 21.6716 13.796C21.6716 14.276 21.5576 14.648 21.3296 14.912C20.8376 15.524 20.3156 16.04 19.7636 16.46C19.2116 16.88 18.6776 17.09 18.1616 17.09C17.7656 17.09 17.3996 16.958 17.0636 16.694C16.7396 16.418 16.4936 16.046 16.3256 15.578C15.7016 16.586 14.9156 17.09 13.9676 17.09ZM14.6156 15.272C14.8796 15.272 15.1316 15.116 15.3716 14.804C15.6116 14.492 15.7856 14.078 15.8936 13.562L16.5596 10.25C16.0556 10.262 15.5876 10.454 15.1556 10.826C14.7356 11.186 14.3996 11.666 14.1476 12.266C13.8956 12.866 13.7696 13.502 13.7696 14.174C13.7696 14.546 13.8416 14.822 13.9856 15.002C14.1416 15.182 14.3516 15.272 14.6156 15.272ZM22.5667 7.424C22.0627 7.424 21.6847 7.31 21.4327 7.082C21.1807 6.842 21.0547 6.512 21.0547 6.092C21.0547 5.672 21.2167 5.324 21.5407 5.048C21.8767 4.76 22.2907 4.616 22.7827 4.616C23.2267 4.616 23.5867 4.724 23.8627 4.94C24.1387 5.156 24.2767 5.462 24.2767 5.858C24.2767 6.338 24.1207 6.722 23.8087 7.01C23.4967 7.286 23.0827 7.424 22.5667 7.424ZM22.4227 17.09C21.6427 17.09 21.0727 16.814 20.7127 16.262C20.3647 15.71 20.1907 14.978 20.1907 14.066C20.1907 13.526 20.2567 12.836 20.3887 11.996C20.5327 11.144 20.7127 10.352 20.9287 9.62C21.0367 9.236 21.1807 8.972 21.3607 8.828C21.5407 8.684 21.8287 8.612 22.2247 8.612C22.8367 8.612 23.1427 8.816 23.1427 9.224C23.1427 9.524 23.0287 10.22 22.8007 11.312C22.5127 12.632 22.3687 13.526 22.3687 13.994C22.3687 14.354 22.4167 14.63 22.5127 14.822C22.6087 15.014 22.7707 15.11 22.9987 15.11C23.2147 15.11 23.4847 14.96 23.8087 14.66C24.1327 14.36 24.5647 13.886 25.1047 13.238C25.2487 13.07 25.4107 12.986 25.5907 12.986C25.7467 12.986 25.8667 13.058 25.9507 13.202C26.0467 13.346 26.0947 13.544 26.0947 13.796C26.0947 14.276 25.9807 14.648 25.7527 14.912C24.5647 16.364 23.4547 17.09 22.4227 17.09ZM31.4604 12.986C31.6164 12.986 31.7364 13.058 31.8204 13.202C31.9164 13.346 31.9644 13.544 31.9644 13.796C31.9644 14.276 31.8504 14.648 31.6224 14.912C31.1064 15.548 30.5424 16.07 29.9304 16.478C29.3304 16.886 28.6464 17.09 27.8784 17.09C26.8224 17.09 26.0364 16.61 25.5204 15.65C25.0164 14.69 24.7644 13.448 24.7644 11.924C24.7644 10.46 24.9504 8.792 25.3224 6.92C25.7064 5.048 26.2644 3.44 26.9964 2.096C27.7404 0.751999 28.6224 0.079999 29.6424 0.079999C30.2184 0.079999 30.6684 0.349999 30.9924 0.889999C31.3284 1.418 31.4964 2.18 31.4964 3.176C31.4964 4.604 31.1004 6.26 30.3084 8.144C29.5164 10.028 28.4424 11.894 27.0864 13.742C27.1704 14.234 27.3084 14.588 27.5004 14.804C27.6924 15.008 27.9444 15.11 28.2564 15.11C28.7484 15.11 29.1804 14.972 29.5524 14.696C29.9244 14.408 30.3984 13.922 30.9744 13.238C31.1184 13.07 31.2804 12.986 31.4604 12.986ZM29.2464 1.862C28.9704 1.862 28.6584 2.36 28.3104 3.356C27.9624 4.352 27.6564 5.588 27.3924 7.064C27.1284 8.54 26.9844 9.956 26.9604 11.312C27.8124 9.908 28.4904 8.504 28.9944 7.1C29.4984 5.684 29.7504 4.394 29.7504 3.23C29.7504 2.318 29.5824 1.862 29.2464 1.862ZM39.6895 11.474C39.8455 11.474 39.9655 11.552 40.0495 11.708C40.1335 11.864 40.1755 12.062 40.1755 12.302C40.1755 12.878 40.0015 13.22 39.6535 13.328C38.9335 13.58 38.1415 13.724 37.2775 13.76C37.0495 14.768 36.5995 15.578 35.9275 16.19C35.2555 16.79 34.4935 17.09 33.6415 17.09C32.9215 17.09 32.3035 16.916 31.7875 16.568C31.2835 16.22 30.8995 15.758 30.6355 15.182C30.3715 14.606 30.2395 13.982 30.2395 13.31C30.2395 12.398 30.4135 11.588 30.7615 10.88C31.1095 10.16 31.5895 9.602 32.2015 9.206C32.8135 8.798 33.4915 8.594 34.2355 8.594C35.1475 8.594 35.8795 8.912 36.4315 9.548C36.9955 10.172 37.3255 10.946 37.4215 11.87C37.9855 11.834 38.6575 11.714 39.4375 11.51C39.5335 11.486 39.6175 11.474 39.6895 11.474ZM33.7855 15.182C34.1695 15.182 34.4995 15.026 34.7755 14.714C35.0635 14.402 35.2555 13.952 35.3515 13.364C34.9795 13.112 34.6915 12.782 34.4875 12.374C34.2955 11.966 34.1995 11.534 34.1995 11.078C34.1995 10.886 34.2175 10.694 34.2535 10.502H34.1635C33.6835 10.502 33.2815 10.736 32.9575 11.204C32.6455 11.66 32.4895 12.308 32.4895 13.148C32.4895 13.808 32.6155 14.312 32.8675 14.66C33.1315 15.008 33.4375 15.182 33.7855 15.182ZM45.9026 11.078C46.1666 11.078 46.3886 11.174 46.5686 11.366C46.7606 11.546 46.8566 11.774 46.8566 12.05C46.8566 12.206 46.8206 12.374 46.7486 12.554C46.5566 12.998 46.2866 13.37 45.9386 13.67C45.5906 13.97 45.2066 14.12 44.7866 14.12C44.4506 14.12 44.1626 14 43.9226 13.76C43.6946 13.52 43.5806 13.196 43.5806 12.788C43.5806 12.56 43.5926 12.314 43.6166 12.05C43.6406 11.858 43.6526 11.726 43.6526 11.654C43.6526 11.558 43.6286 11.486 43.5806 11.438C43.5446 11.39 43.4966 11.366 43.4366 11.366C43.2686 11.366 43.0406 11.57 42.7526 11.978C42.4646 12.374 42.1766 12.902 41.8886 13.562C41.6006 14.222 41.3666 14.918 41.1866 15.65C41.0546 16.226 40.9046 16.61 40.7366 16.802C40.5686 16.994 40.2926 17.09 39.9086 17.09C39.4526 17.09 39.1286 16.85 38.9366 16.37C38.7566 15.89 38.6666 15.122 38.6666 14.066C38.6666 12.506 38.8886 11.024 39.3326 9.62C39.4406 9.272 39.6146 9.02 39.8546 8.864C40.1066 8.696 40.4546 8.612 40.8986 8.612C41.1386 8.612 41.3066 8.642 41.4026 8.702C41.4986 8.762 41.5466 8.876 41.5466 9.044C41.5466 9.236 41.4566 9.668 41.2766 10.34C41.1566 10.82 41.0606 11.24 40.9886 11.6C40.9166 11.96 40.8566 12.404 40.8086 12.932C41.2046 11.9 41.6486 11.06 42.1406 10.412C42.6326 9.764 43.1126 9.302 43.5806 9.026C44.0486 8.75 44.4746 8.612 44.8586 8.612C45.2066 8.612 45.4706 8.714 45.6506 8.918C45.8426 9.11 45.9386 9.398 45.9386 9.782C45.9386 10.01 45.8726 10.442 45.7406 11.078H45.9026ZM55.6184 17.09C55.1744 17.09 54.8564 16.994 54.6644 16.802C54.4724 16.598 54.3764 16.22 54.3764 15.668C54.3764 15.296 54.4124 14.822 54.4844 14.246C54.5684 13.658 54.7004 12.854 54.8804 11.834C55.1924 9.95 55.4384 8.318 55.6184 6.938C55.7264 6.074 55.7804 5.354 55.7804 4.778C55.7804 4.238 55.5824 3.968 55.1864 3.968C54.8744 3.968 54.4964 4.13 54.0524 4.454C53.6204 4.766 53.1404 5.27 52.6124 5.966C52.4444 6.194 52.2584 6.308 52.0544 6.308C51.8864 6.308 51.7364 6.23 51.6044 6.074C51.4844 5.906 51.4244 5.72 51.4244 5.516C51.4244 5.324 51.4604 5.132 51.5324 4.94C51.6164 4.736 51.7484 4.508 51.9284 4.256C52.5044 3.452 53.1464 2.834 53.8544 2.402C54.5624 1.958 55.2704 1.736 55.9784 1.736C56.6384 1.736 57.1424 1.946 57.4904 2.366C57.8504 2.786 58.0304 3.398 58.0304 4.202C58.0304 4.526 58.0004 4.91 57.9404 5.354C57.8804 5.786 57.8264 6.14 57.7784 6.416C57.7304 6.692 57.6944 6.884 57.6704 6.992C58.3544 5.036 59.1224 3.674 59.9744 2.906C60.8264 2.126 61.7624 1.736 62.7824 1.736C63.5624 1.736 64.1744 2.012 64.6184 2.564C65.0744 3.116 65.3024 3.896 65.3024 4.904C65.3024 5.3 65.2484 5.792 65.1404 6.38C65.7404 4.724 66.4424 3.536 67.2464 2.816C68.0504 2.096 68.9744 1.736 70.0184 1.736C70.8584 1.736 71.5004 2.006 71.9444 2.546C72.4004 3.086 72.6284 3.842 72.6284 4.814C72.6284 5.342 72.5504 5.984 72.3944 6.74L71.2964 11.888C71.1764 12.488 71.1164 13.004 71.1164 13.436C71.1164 13.94 71.2304 14.318 71.4584 14.57C71.6984 14.822 72.0284 14.948 72.4484 14.948C72.8444 14.948 73.2284 14.816 73.6004 14.552C73.9844 14.288 74.4344 13.85 74.9504 13.238C75.0944 13.07 75.2564 12.986 75.4364 12.986C75.5924 12.986 75.7124 13.058 75.7964 13.202C75.8924 13.346 75.9404 13.544 75.9404 13.796C75.9404 14.264 75.8264 14.636 75.5984 14.912C74.9744 15.668 74.3564 16.22 73.7444 16.568C73.1324 16.916 72.4904 17.09 71.8184 17.09C70.7984 17.09 70.0004 16.79 69.4244 16.19C68.8484 15.578 68.5604 14.762 68.5604 13.742C68.5604 13.034 68.7044 12.008 68.9924 10.664L69.7124 7.37C69.7364 7.262 69.7784 7.07 69.8384 6.794C69.8984 6.518 69.9464 6.26 69.9824 6.02C70.0184 5.768 70.0364 5.522 70.0364 5.282C70.0364 4.862 69.9524 4.55 69.7844 4.346C69.6284 4.13 69.4004 4.022 69.1004 4.022C68.5364 4.022 67.9424 4.388 67.3184 5.12C66.7064 5.84 66.1184 7.04 65.5544 8.72C65.0024 10.4 64.5524 12.584 64.2044 15.272C64.1204 15.992 63.9704 16.478 63.7544 16.73C63.5504 16.97 63.2144 17.09 62.7464 17.09C62.3384 17.09 62.0384 16.994 61.8464 16.802C61.6664 16.61 61.5764 16.25 61.5764 15.722C61.5764 15.23 61.6424 14.588 61.7744 13.796C61.9064 12.992 62.0744 12.05 62.2784 10.97C62.8304 8.066 63.1064 6.194 63.1064 5.354C63.1064 4.898 63.0164 4.562 62.8364 4.346C62.6684 4.13 62.4104 4.022 62.0624 4.022C61.4744 4.022 60.8684 4.358 60.2444 5.03C59.6204 5.69 59.0084 6.872 58.4084 8.576C57.8204 10.268 57.3284 12.56 56.9324 15.452C56.8484 16.064 56.7224 16.49 56.5544 16.73C56.3984 16.97 56.0864 17.09 55.6184 17.09ZM83.67 11.474C83.826 11.474 83.946 11.552 84.03 11.708C84.114 11.864 84.156 12.062 84.156 12.302C84.156 12.878 83.982 13.22 83.634 13.328C82.914 13.58 82.122 13.724 81.258 13.76C81.03 14.768 80.58 15.578 79.908 16.19C79.236 16.79 78.474 17.09 77.622 17.09C76.902 17.09 76.284 16.916 75.768 16.568C75.264 16.22 74.88 15.758 74.616 15.182C74.352 14.606 74.22 13.982 74.22 13.31C74.22 12.398 74.394 11.588 74.742 10.88C75.09 10.16 75.57 9.602 76.182 9.206C76.794 8.798 77.472 8.594 78.216 8.594C79.128 8.594 79.86 8.912 80.412 9.548C80.976 10.172 81.306 10.946 81.402 11.87C81.966 11.834 82.638 11.714 83.418 11.51C83.514 11.486 83.598 11.474 83.67 11.474ZM77.766 15.182C78.15 15.182 78.48 15.026 78.756 14.714C79.044 14.402 79.236 13.952 79.332 13.364C78.96 13.112 78.672 12.782 78.468 12.374C78.276 11.966 78.18 11.534 78.18 11.078C78.18 10.886 78.198 10.694 78.234 10.502H78.144C77.664 10.502 77.262 10.736 76.938 11.204C76.626 11.66 76.47 12.308 76.47 13.148C76.47 13.808 76.596 14.312 76.848 14.66C77.112 15.008 77.418 15.182 77.766 15.182ZM92.1871 11.474C92.3431 11.474 92.4631 11.552 92.5471 11.708C92.6311 11.864 92.6731 12.062 92.6731 12.302C92.6731 12.602 92.6311 12.836 92.5471 13.004C92.4631 13.16 92.3311 13.268 92.1511 13.328C91.4311 13.58 90.6391 13.724 89.7751 13.76C89.5351 14.756 89.0791 15.56 88.4071 16.172C87.7471 16.784 87.0151 17.09 86.2111 17.09C84.9991 17.09 84.1171 16.628 83.5651 15.704C83.0131 14.78 82.7371 13.442 82.7371 11.69C82.7371 10.142 82.9291 8.462 83.3131 6.65C83.6971 4.826 84.2551 3.278 84.9871 2.006C85.7311 0.721999 86.6131 0.079999 87.6331 0.079999C88.1851 0.079999 88.6291 0.319999 88.9651 0.799999C89.3011 1.268 89.4691 1.88 89.4691 2.636C89.4691 3.62 89.2831 4.598 88.9111 5.57C88.5391 6.542 87.9211 7.562 87.0571 8.63C87.8611 8.69 88.5151 9.026 89.0191 9.638C89.5231 10.238 89.8231 10.982 89.9191 11.87C90.4831 11.834 91.1551 11.714 91.9351 11.51C92.0071 11.486 92.0911 11.474 92.1871 11.474ZM87.2191 1.862C86.9791 1.862 86.7151 2.222 86.4271 2.942C86.1511 3.65 85.8931 4.616 85.6531 5.84C85.4131 7.064 85.2331 8.402 85.1131 9.854C85.9051 8.402 86.5351 7.124 87.0031 6.02C87.4831 4.904 87.7231 3.914 87.7231 3.05C87.7231 2.666 87.6751 2.372 87.5791 2.168C87.4951 1.964 87.3751 1.862 87.2191 1.862ZM86.2831 15.182C86.6551 15.182 86.9851 15.026 87.2731 14.714C87.5611 14.402 87.7531 13.952 87.8491 13.364C87.4771 13.112 87.1891 12.782 86.9851 12.374C86.7931 11.966 86.6971 11.534 86.6971 11.078C86.6971 10.91 86.7211 10.682 86.7691 10.394H86.7151C86.2231 10.394 85.8091 10.64 85.4731 11.132C85.1491 11.612 84.9871 12.26 84.9871 13.076C84.9871 13.76 85.1131 14.282 85.3651 14.642C85.6291 15.002 85.9351 15.182 86.2831 15.182ZM93.4769 7.424C92.9729 7.424 92.5949 7.31 92.3429 7.082C92.0909 6.842 91.9649 6.512 91.9649 6.092C91.9649 5.672 92.1269 5.324 92.4509 5.048C92.7869 4.76 93.2009 4.616 93.6929 4.616C94.1369 4.616 94.4969 4.724 94.7729 4.94C95.0489 5.156 95.1869 5.462 95.1869 5.858C95.1869 6.338 95.0309 6.722 94.7189 7.01C94.4069 7.286 93.9929 7.424 93.4769 7.424ZM93.3329 17.09C92.5529 17.09 91.9829 16.814 91.6229 16.262C91.2749 15.71 91.1009 14.978 91.1009 14.066C91.1009 13.526 91.1669 12.836 91.2989 11.996C91.4429 11.144 91.6229 10.352 91.8389 9.62C91.9469 9.236 92.0909 8.972 92.2709 8.828C92.4509 8.684 92.7389 8.612 93.1349 8.612C93.7469 8.612 94.0529 8.816 94.0529 9.224C94.0529 9.524 93.9389 10.22 93.7109 11.312C93.4229 12.632 93.2789 13.526 93.2789 13.994C93.2789 14.354 93.3269 14.63 93.4229 14.822C93.5189 15.014 93.6809 15.11 93.9089 15.11C94.1249 15.11 94.3949 14.96 94.7189 14.66C95.0429 14.36 95.4749 13.886 96.0149 13.238C96.1589 13.07 96.3209 12.986 96.5009 12.986C96.6569 12.986 96.7769 13.058 96.8609 13.202C96.9569 13.346 97.0049 13.544 97.0049 13.796C97.0049 14.276 96.8909 14.648 96.6629 14.912C95.4749 16.364 94.3649 17.09 93.3329 17.09ZM102.371 12.986C102.527 12.986 102.647 13.058 102.731 13.202C102.827 13.346 102.875 13.544 102.875 13.796C102.875 14.276 102.761 14.648 102.533 14.912C102.017 15.548 101.453 16.07 100.841 16.478C100.241 16.886 99.5566 17.09 98.7886 17.09C97.7326 17.09 96.9466 16.61 96.4306 15.65C95.9266 14.69 95.6746 13.448 95.6746 11.924C95.6746 10.46 95.8606 8.792 96.2326 6.92C96.6166 5.048 97.1746 3.44 97.9066 2.096C98.6506 0.751999 99.5326 0.079999 100.553 0.079999C101.129 0.079999 101.579 0.349999 101.903 0.889999C102.239 1.418 102.407 2.18 102.407 3.176C102.407 4.604 102.011 6.26 101.219 8.144C100.427 10.028 99.3526 11.894 97.9966 13.742C98.0806 14.234 98.2186 14.588 98.4106 14.804C98.6026 15.008 98.8546 15.11 99.1666 15.11C99.6586 15.11 100.091 14.972 100.463 14.696C100.835 14.408 101.309 13.922 101.885 13.238C102.029 13.07 102.191 12.986 102.371 12.986ZM100.157 1.862C99.8806 1.862 99.5686 2.36 99.2206 3.356C98.8726 4.352 98.5666 5.588 98.3026 7.064C98.0386 8.54 97.8946 9.956 97.8706 11.312C98.7226 9.908 99.4006 8.504 99.9046 7.1C100.409 5.684 100.661 4.394 100.661 3.23C100.661 2.318 100.493 1.862 100.157 1.862ZM107.864 13.526C108.02 13.526 108.14 13.598 108.224 13.742C108.32 13.886 108.368 14.084 108.368 14.336C108.368 14.768 108.266 15.14 108.062 15.452C107.726 15.968 107.282 16.37 106.73 16.658C106.19 16.946 105.542 17.09 104.786 17.09C103.634 17.09 102.74 16.748 102.104 16.064C101.468 15.368 101.15 14.432 101.15 13.256C101.15 12.428 101.324 11.66 101.672 10.952C102.02 10.232 102.5 9.662 103.112 9.242C103.736 8.822 104.438 8.612 105.218 8.612C105.914 8.612 106.472 8.822 106.892 9.242C107.312 9.65 107.522 10.208 107.522 10.916C107.522 11.744 107.222 12.458 106.622 13.058C106.034 13.646 105.026 14.114 103.598 14.462C103.886 15.014 104.372 15.29 105.056 15.29C105.548 15.29 105.95 15.176 106.262 14.948C106.586 14.72 106.958 14.336 107.378 13.796C107.522 13.616 107.684 13.526 107.864 13.526ZM104.912 10.376C104.468 10.376 104.09 10.634 103.778 11.15C103.478 11.666 103.328 12.29 103.328 13.022V13.058C104.036 12.89 104.594 12.638 105.002 12.302C105.41 11.966 105.614 11.576 105.614 11.132C105.614 10.904 105.548 10.724 105.416 10.592C105.296 10.448 105.128 10.376 104.912 10.376Z" fill="black"/>
</svg>
