<svg width="24" height="24" viewBox="0 0 24 24" fill="none" xmlns="http://www.w3.org/2000/svg">
<path fill-rule="evenodd" clip-rule="evenodd" d="M3.99628 3C3.72028 3 3.49628 3.224 3.49628 3.5L3.49628 20.5C3.49628 20.776 3.72028 21 3.99628 21H6.99628C7.27228 21 7.49628 20.776 7.49628 20.5L7.49628 3.5C7.49628 3.224 7.27228 3 6.99628 3H3.99628ZM4.79628 4C4.63028 4 4.49628 4.134 4.49628 4.3L4.49628 19.7C4.49628 19.866 4.63028 20 4.79628 20H6.19628C6.36228 20 6.49628 19.866 6.49628 19.7L6.49628 4.3C6.49628 4.134 6.36228 4 6.19628 4H4.79628Z" fill="black"/>
<path fill-rule="evenodd" clip-rule="evenodd" d="M8.99628 3C8.72028 3 8.49628 3.224 8.49628 3.5L8.49628 20.5C8.49628 20.776 8.72028 21 8.99628 21H11.9963C12.2723 21 12.4963 20.776 12.4963 20.5V3.5C12.4963 3.224 12.2723 3 11.9963 3H8.99628ZM9.79628 4C9.63028 4 9.49628 4.134 9.49628 4.3L9.49628 19.7C9.49628 19.866 9.63028 20 9.79628 20H11.1963C11.3623 20 11.4963 19.866 11.4963 19.7V4.3C11.4963 4.134 11.3623 4 11.1963 4H9.79628Z" fill="black"/>
<path fill-rule="evenodd" clip-rule="evenodd" d="M13.8723 3.62639C13.6044 3.69288 13.441 3.96425 13.5075 4.23212L17.6031 20.7314C17.6695 20.9993 17.9409 21.1627 18.2088 21.0962L21.1204 20.3735C21.3883 20.307 21.5517 20.0356 21.4852 19.7677L17.3896 3.26845C17.3232 3.00058 17.0518 2.83715 16.7839 2.90364L13.8723 3.62639ZM14.8896 4.4042C14.7285 4.44419 14.6307 4.60653 14.6707 4.76764L18.3809 19.714C18.4209 19.8752 18.5832 19.9729 18.7443 19.9329L20.1031 19.5957C20.2642 19.5557 20.3619 19.3933 20.322 19.2322L16.6118 4.28581C16.5718 4.1247 16.4095 4.02693 16.2484 4.06692L14.8896 4.4042Z" fill="black"/>
</svg>
